<svg xmlns="http://www.w3.org/2000/svg" width="270.337" height="432" viewBox="0 0 270.337 432"><path d="M309.168,376.064a43.271,43.271,0,0,1-3.8-3.058Q229.08,296.859,152.854,220.68c-5.912-5.912-5.912-5.912-.173-11.635,15.5-15.466,31.074-30.868,46.445-46.461,2.444-2.459,3.658-2.68,6.306,0Q310.965,268.213,416.687,373.668c2.3,2.3,2.507,3.5.095,5.9q-105.959,105.628-211.7,211.461c-2.57,2.554-3.752,1.845-5.881-.3-16.144-16.27-32.335-32.508-48.731-48.526-3.153-3.011-3-4.446,0-7.441q77.5-77.108,154.721-154.5C306.424,379.028,307.528,377.8,309.168,376.064Z" transform="translate(-148.167 -160.657)" fill="#014aad"/></svg>