<svg xmlns="http://www.w3.org/2000/svg" width="387.147" height="385.395" viewBox="0 0 387.147 385.395"><g transform="translate(-375 -37.604)"><path d="M432.951,406.293c-1.216,1.446-2.295,2.846-3.419,4.039Q336.254,503.587,243.021,596.7c-3.442,3.442-5.163,2.845-8.238-.252Q141.574,503.22,48.157,410.194c-2.868-2.845-3.327-4.406-.184-7.527q93.737-93.232,187.2-186.74c2.96-2.983,4.589-3.1,7.687,0q93.164,93.232,186.534,186.35C430.611,403.424,431.758,404.916,432.951,406.293Zm-46.788,0c-1.514-1.675-2.754-3.19-4.13-4.589Q313.9,333.552,245.89,265.354c-3.6-3.626-5.645-3.924-9.408-.138q-68.427,68.84-137.267,137.313c-2.868,2.869-3.281,4.383-.161,7.481q69.161,68.657,137.956,137.681c3.4,3.4,5.209,2.891,8.307-.207q68.634-68.656,137.428-137.153c1.17-1.193,2.18-2.593,3.419-4.084Z" transform="translate(329.195 -176.042)" fill="#5573fe"/><path d="M320.21,365.316c-1.331,1.538-2.295,2.914-3.58,4.13Q259.837,426.216,203.09,483.01c-3.19,3.213-5.048,3.327-8.307,0q-56.931-57.16-114.16-113.954c-3.075-3.052-2.845-4.589,0-7.549q56.931-56.587,113.586-113.495c3.832-3.855,5.851-3.35,9.408.23q56.1,56.38,112.439,112.439C317.571,362.126,318.764,363.664,320.21,365.316Z" transform="translate(371.398 -135.019)" fill="#5573fe"/></g></svg>