<svg xmlns="http://www.w3.org/2000/svg" width="101.612" height="80.478" viewBox="0 0 101.612 80.478"><g transform="translate(394.703 -627.99)"><path d="M-270.943,708.425c-5.919,0-11.838-.025-17.756.02-1.261.01-2.1-.148-2.536-1.593-4.572-14.962-6.934-30.194-4.483-45.77,3.192-20.294,18.348-33.018,38.7-33.093,1.643-.006,2.4.323,2.358,2.19-.116,5.153-.057,10.311-.028,15.467.007,1.184-.139,1.847-1.641,2.013-7.86.865-11.867,4.76-13.248,12.587a64.673,64.673,0,0,0-.589,9.7c-.041,1.655.707,1.834,2.057,1.818,4.773-.057,9.548.044,14.319-.056,1.758-.037,2.515.3,2.5,2.31q-.145,16.041,0,32.083c.015,1.931-.625,2.395-2.457,2.36C-259.486,708.356-265.215,708.425-270.943,708.425Z" transform="translate(-41.793)" fill="#fcfdfc"/><path d="M-368.943,708.425c-5.919,0-11.838-.025-17.756.02-1.261.01-2.1-.148-2.536-1.593-4.572-14.962-6.934-30.194-4.483-45.77,3.192-20.294,18.348-33.018,38.7-33.093,1.643-.006,2.4.323,2.358,2.19-.116,5.153-.057,10.311-.028,15.467.007,1.184-.139,1.847-1.641,2.013-7.86.865-11.867,4.76-13.248,12.587a64.673,64.673,0,0,0-.589,9.7c-.041,1.655.707,1.834,2.057,1.818,4.773-.057,9.548.044,14.319-.056,1.758-.037,2.515.3,2.5,2.31q-.145,16.041,0,32.083c.015,1.931-.625,2.395-2.457,2.36C-357.486,708.356-363.215,708.425-368.943,708.425Z" fill="#fcfdfc"/></g></svg>