<svg xmlns="http://www.w3.org/2000/svg" width="30" height="30" viewBox="0 0 30 30"><g transform="translate(-1477 -5546)"><rect width="30" height="30" transform="translate(1477 5546)" fill="#5573fe"/><path d="M3.134,14.01H.231V4.663h2.9ZM1.681,3.388a1.689,1.689,0,1,1,1.681-1.7A1.7,1.7,0,0,1,1.681,3.388ZM14,14.01H11.1V9.46c0-1.084-.022-2.475-1.509-2.475-1.509,0-1.74,1.178-1.74,2.4V14.01h-2.9V4.663H7.736V5.938h.041a3.05,3.05,0,0,1,2.746-1.509C13.46,4.429,14,6.363,14,8.876V14.01Z" transform="translate(1485 5553.99)" fill="#fff"/></g></svg>